<?xml version="1.0" encoding="UTF-8"?>
<!DOCTYPE svg PUBLIC "-//W3C//DTD SVG 1.1//EN" "http://www.w3.org/Graphics/SVG/1.1/DTD/svg11.dtd">
<!-- Creator: CorelDRAW (Versão de avaliação) -->
<svg xmlns="http://www.w3.org/2000/svg" xml:space="preserve" width="254mm" height="254mm" version="1.1" style="shape-rendering:geometricPrecision; text-rendering:geometricPrecision; image-rendering:optimizeQuality; fill-rule:evenodd; clip-rule:evenodd"
viewBox="0 0 25400 25400"
 xmlns:xlink="http://www.w3.org/1999/xlink"
 xmlns:xodm="http://www.corel.com/coreldraw/odm/2003">
 <defs>
  <style type="text/css">
   <![CDATA[
    .str0 {stroke:black;stroke-width:7.62;stroke-miterlimit:22.9256}
    .fil6 {fill:none}
    .fil2 {fill:#13334C}
    .fil9 {fill:#34792D}
    .fil8 {fill:#3A5E98}
    .fil13 {fill:#5165A6}
    .fil5 {fill:#838383}
    .fil3 {fill:#A4A487}
    .fil4 {fill:#B5BBBC}
    .fil7 {fill:#D7E3EB}
    .fil12 {fill:#E4E9F1}
    .fil10 {fill:#E9AE00}
    .fil11 {fill:#FAFBFC}
    .fil1 {fill:red}
    .fil0 {fill:white}
   ]]>
  </style>
 </defs>
 <g id="Camada_x0020_1">
  <metadata id="CorelCorpID_0Corel-Layer"/>
  <g id="_1066153136">
   <polygon class="fil0" points="10314.48,9767.34 10406.92,9766.87 10553.57,9766.13 10739.93,9765.17 10911.41,9764.3 11063.02,9763.53 11246.54,9762.59 11428.63,9761.66 11588.05,9760.85 11742.52,9760.06 11904.05,9759.23 12047.18,9758.5 12191.02,9757.77 12361.77,9756.9 12575.05,9755.81 12736.58,9754.99 12877.6,9754.27 13042.67,9753.43 13199.99,9752.62 13370.74,9751.75 13498.99,9751.1 13656.28,9750.29 13779.56,9749.67 13912.77,9748.99 14052.35,9748.27 14168.56,9747.68 14269.6,9747.16 14190,9705.72 14081.24,9649.11 13988.19,9600.66 13898.75,9554.1 13794.47,9499.8 13694.09,9447.54 13569.33,9382.59 13460.54,9325.95 13353.99,9270.48 13232.54,9207.25 13105.51,9141.11 13000.1,9086.23 12885.39,9026.51 12780.54,8971.93 12674.87,8916.91 12586.03,8870.66 12513.21,8832.75 12449.14,8799.39 12404.8,8774.67 12369.58,8756.9 12328.75,8740.19 12301.63,8733.4 12282.42,8732.49 12265.84,8736.91 12254.6,8746.31 12234.28,8750.69 12209.81,8759.02 12159.62,8780.08 12079.21,8818.55 11997.78,8860.37 11905.48,8909.7 11828.49,8951.81 11753.92,8992.7 11676.33,9034.45 11592.88,9079.37 11516.34,9120.55 11437.96,9162.74 11363.12,9203.01 11293.77,9240.33 11224.04,9277.86 11072.18,9359.59 10941.56,9429.88 10819.3,9495.67 10721.85,9548.11 10619.13,9603.4 10519.14,9657.21 10423.13,9708.88 "/>
   <path class="fil1 str0" d="M9350.03 13450.22l219.15 16.53 -36.76 19.36 -18.69 11.87 -24.9 20.05 -19.4 23.05 -11.21 21.61 -7.55 25.74 -5.6 41.17 -3.38 39.07 -5.96 50.33 -6.22 34.93 -7.26 31.41 -277.9 20.27 -7.62 327.78 -190.09 5.39 -0.92 327.64 200.88 -19.33 337.5 -42.8 383.63 -54.06 396.38 -47.72 390.64 -23.53 401.45 17.58 288.82 49.85 218.63 64.2 228.82 96.45 199.88 111.61 123.03 88.89 71.34 103.97 17.74 106.15 -2.99 174.34 -7.5 211.07 -1.29 101.13 -89.36 -68.55 -79.51 -80.31 -55.65 -48.41 -56.41 -39.72 -84.52 -48.16 -88.46 -45.91 -120.55 -61.81 -126.21 -50.17 -83.29 -30.62 -87.68 -27.52 -103.59 -27.14 -76.62 -16.6 -94.63 -16.71 -108.55 -14.39 -113.57 -10.06 -93.84 -8.27 -71.06 -2.07 -65.56 3.81 -106.21 2.49 -120.16 6.45 -134.14 11.26 -112.49 12.33 -132.09 17.39 -152.19 23.28 -170.34 29.24 -174.53 32.31 -162.55 31.11c0,0 -140.5,26.82 -144.88,27.65 -4.38,0.83 -209.74,38.05 -209.74,38.05l-161.66 26.02 -163.77 21.59 -129.27 12.26 -113.34 6.19 -142.84 0 -126.2 -9.28 -89.02 -13.18 206.65 -275.68 258.52 -344.92 259.37 -346.02 276.53 -368.94 112.18 -149.67 34.34 -14.33 32.67 -6.47 25.06 -1.74 34.97 -1.77 20.54 -4.81 15.62 -10.29 12.24 -18.79 8.38 -29.83 3.29 -26.82 1.27 -24.94 0.2 -11.53z"/>
   <path class="fil0" d="M9350.03 13450.22l219.15 16.53 -36.76 19.36 -18.69 11.87 -24.9 20.05 -19.4 23.05 -11.21 21.61 -7.55 25.74 -5.6 41.17 -3.38 39.07 -5.96 50.33 -6.22 34.93 -7.26 31.41 -277.9 20.27 -7.62 327.78 -190.09 5.39 -0.92 327.64 200.88 -19.33 337.5 -42.8 383.63 -54.06 396.38 -47.72 390.64 -23.53 201.43 2.36 200.72 8.79 288.12 56.28 111.26 29.52 109.31 32.1 115.79 48.16 114.41 48.22 98.28 57.13 98.28 57.13 64.83 42.54 58.2 46.35 42.16 47.27 35.67 51.98 11.25 110.87 -2.99 174.34 -7.5 211.07 -0.65 50.57 -0.64 50.56 -25.84 -15.57 -24.11 -15.96 -42.96 -34.66 -75.96 -82.67 -55.65 -48.41 -56.41 -39.72 -84.52 -48.16 -88.46 -45.91 -120.55 -61.81 -126.21 -50.17 -83.29 -30.62 -87.68 -27.52 -103.59 -27.14 -76.62 -16.6 -94.63 -16.71 -108.55 -14.39 -113.57 -10.06 -93.84 -8.27 -71.06 -2.07 -65.56 3.81 -106.21 2.49 -120.16 6.45 -134.14 11.26 -112.49 12.33 -132.09 17.39 -152.19 23.28 -170.34 29.24 -174.53 32.31 -162.55 31.11c0,0 -140.5,26.82 -144.88,27.65 -4.38,0.83 -209.74,38.05 -209.74,38.05l-161.66 26.02 -163.77 21.59 -129.27 12.26 -113.34 6.19 -142.84 0 -126.2 -9.28 -89.02 -13.18 206.65 -275.68 258.52 -344.92 259.37 -346.02 276.53 -368.94 112.18 -149.67 34.34 -14.33 32.67 -6.47 25.06 -1.74 34.97 -1.77 20.54 -4.81 15.62 -10.29 12.24 -18.79 8.38 -29.83 3.29 -26.82 1.27 -24.94 0.2 -11.53z"/>
   <polygon class="fil0" points="15184.95,13372.87 14967.46,13371.04 14973.55,13383.22 14986.14,13402.29 15010.59,13426.3 15040.22,13451.1 15060.36,13475.91 15078.29,13512.68 15088.24,13547.6 15094.47,13594.89 15097.64,13648.85 15101.14,13687.07 15104.49,13708.48 15266.77,13711.61 15377.77,13713.75 15380.05,13886.2 15382.25,14052.41 15582.46,14054.53 15576.14,14375.67 15471.86,14378.96 15364.83,14375.51 15233.29,14365.14 15136.32,14354.69 14968.4,14333.43 14766.9,14306.01 14530.71,14275.65 14275.31,14249.6 14029.28,14235.21 13831.96,14233.78 13597.69,14246.65 13390.62,14273.9 13152.46,14327.51 13001.95,14375.88 12834.25,14445.3 12704.61,14511.82 12664.08,14535.17 12599.48,14575.02 12541.04,14612.63 12488.44,14648.53 12445.07,14681.68 12402.51,14721.58 12384.32,14743.29 12363.63,14775.13 12346.46,14813.57 12335.46,14852.26 12326.99,14905.01 12323.9,14942.26 12322.03,14992.38 12321.84,15045.22 12322.87,15104.87 12324.44,15159.27 12326.78,15226.71 12328.42,15271.71 12330.12,15318.26 12331.23,15349.58 12332.58,15389.34 12333.39,15414.02 12364.93,15388.46 12403.4,15352.26 12437,15317.34 12482.79,15269.51 12530.18,15224.44 12571.75,15189.54 12612.84,15158.68 12656.92,15128.79 12703.51,15100.03 12757.77,15069.37 12818.8,15037.71 12873.16,15011.5 12923.9,14988.39 12970.26,14968.24 13020.29,14947.4 13078.65,14924.08 13144.08,14899.69 13218.24,14874.73 13269.21,14859.2 13354.72,14836.01 13418.06,14821.1 13476.61,14808.98 13555.96,14795 13646.52,14782.37 13731.36,14773.57 13810.86,14767.86 13886.09,14764.57 13954.09,14763.27 14024.7,14763.49 14101.62,14765.44 14179.04,14769.05 14253.2,14773.93 14347.93,14781.98 14441.92,14791.73 14517.47,14800.66 14593.54,14810.47 14662.95,14820.04 14760.21,14834.21 14862.37,14849.76 14972.22,14866.87 15094.96,14886 15212.82,14903.89 15298.62,14916.35 15371.6,14926.23 15455.38,14936.56 15543.92,14946.3 15640.94,14955.58 15731.2,14962.94 15815.4,14968.75 15902.69,14973.74 16015.23,14978.76 16151.22,14982.97 16271.41,14985.26 16357.87,14986.25 16462.98,14986.86 16428.07,14927.79 16395.3,14877.18 16362.91,14830.49 16319.03,14771.01 16271.59,14709.88 16217.6,14642.4 16165.45,14577.53 16132.29,14535.67 16092.19,14483.79 16038.56,14414.8 15988.62,14350.67 15943.98,14292.85 15896.82,14230.78 15857.18,14177.4 15808.6,14109.34 15762.17,14037.81 15744.04,14003.46 15686.25,13926.49 15663.76,13899.4 15633.94,13865.2 15601.21,13821.9 15561.06,13762.3 15535.33,13724.16 15502.1,13675.35 15464.49,13622.82 15424.1,13573.75 15402.63,13552.38 15387.97,13540.03 15371.6,13528.49 15357.97,13520.69 15344.36,13514.52 15328.87,13509.34 15316.09,13506.43 15297.58,13503.74 15276.78,13501.13 15266.26,13499.86 15253.54,13498.26 15240.52,13496.36 15229.78,13494.32 15219.72,13491.65 15210.25,13487.84 15202.74,13483.1 15197.8,13478.43 15193.85,13473.07 15190.78,13467.15 15188.04,13459.34 15186.4,13452.4 15185.03,13443.59 15184.15,13433.9 15183.71,13424.35 15183.57,13412.87 15183.71,13402.63 15184.14,13389.35 15184.54,13380.51 "/>
   <path class="fil2" d="M7393.49 15979.91c67.89,-127.77 169.62,-77.73 485.6,-81.11 179.56,-1.92 359.24,-3.55 538.8,-6.34 465.37,-7.25 3017.84,-58.62 3255.23,-38.37 136.52,177.46 238.63,261.87 583.36,257.47 326.01,-4.16 439.47,-73.55 584.03,-269.57 221.85,-31.73 2830.12,-45.5 3277.7,-49.66l809.41 -13.15c150.45,-5 158.59,-22.48 197,104.7 -254.16,28.43 -3305.6,45.52 -3835.23,51.4 -473.92,5.26 -298.48,-26.34 -507.61,141.26 -221.34,177.37 -782.54,183.88 -1035.46,20.65 -214.83,-138.64 52.57,-138.42 -499.87,-134.58 -426.21,2.95 -853.36,10.66 -1279.65,16.71 -426.48,6.04 -853.15,11.73 -1279.65,16.16l-1123.07 19.45c-88.84,2.85 -122.58,2.87 -170.59,-35.02zm5313.81 -274.57c44.96,-110.1 256.85,-177.93 364.93,-218.07 146.32,-54.35 313.16,-94.17 475.15,-116.65 387.37,-53.76 739.4,-10.16 1121.45,34.79 754.78,88.81 872.2,123.58 1629.31,119.62 333.08,-1.75 456.04,-55.86 494.24,107.71 -741.49,33.09 -1383.43,6.52 -2111.68,-81.8 -1634.07,-198.19 -1695.31,191.91 -1973.4,154.4zm-4982.95 42.79l45.38 -110.37c371.48,-26.31 745.06,2.49 1120.84,-37.61 347.32,-37.08 671.7,-92.86 1017.56,-141.47 371.25,-52.17 702.73,-96.07 1080.39,-52.61 216.82,24.96 732.87,163.48 832.9,289.48 -82.81,74.18 -110.75,2.52 -377.83,-77.89 -491.59,-148 -1052.27,-88.15 -1548.8,-10.03 -741.49,116.67 -1417.62,151.73 -2170.44,140.5zm4848.67 -152.39c92.67,-153.63 547.07,-333.48 797.59,-397.73 622.79,-159.74 1494.07,21.33 2141.55,98.66 383.21,45.76 756.92,30.86 1144.97,28.97l49.27 118.95c-1135.8,13.75 -1087.16,-1.85 -2175.19,-130.01 -537.4,-63.29 -1049.96,-66.64 -1565.54,133.66 -130.37,50.65 -282.67,203 -392.65,147.5zm-4756.82 -34.17l42.46 -120.78c395.65,-27.76 741.69,-4.34 1148.12,-59.17 756.49,-102.07 1370.18,-289.53 2140.15,-157.32 259.84,44.62 685.24,240.54 809.51,375.91 -113.51,68.8 -119.89,-28.27 -389.81,-128.45 -514.44,-190.93 -1003.71,-180.8 -1548.97,-100.59 -803.41,118.18 -1379.28,190.19 -2201.46,190.4zm4624.18 -26.39c93.78,-187.85 515.38,-418.52 771.01,-494.74 383.41,-114.35 757.16,-144.62 1158.07,-98.63 691.91,79.39 1278.41,220.8 1996.63,195.52 286.28,-10.07 222.49,-20.81 254.87,95.04 -127.9,64.25 -1024.22,4.74 -1150.88,-9.97 -772.06,-89.65 -1440.14,-274.36 -2214.26,-70.5 -547.38,144.15 -688.25,415.2 -815.44,383.28zm-4541.22 -169.37c37.56,-173.89 79.2,-108.39 508.68,-124.82 1024.1,-39.18 1936.61,-452.49 2880.38,-182.42 236.64,67.72 557.18,228.76 729.35,384.54 57.54,52.05 57.24,42.52 49.14,102.8 -198.07,17.28 -378.65,-555.25 -1920.62,-409.37 -887.12,83.93 -1084.19,258.11 -2246.93,229.27zm4346.91 -1084.61l561.78 -8.45 -165.58 93.18c-71.28,31.29 -104.15,57.61 -181.56,65.75 -69.44,7.29 -173.6,7.22 -247.14,10.52 -76.82,3.45 -166.79,9.66 -229.74,-25.85l-274.46 -124.35 536.7 -10.8zm-2903.94 -267.8c74.74,-76.41 594.46,-47.71 694.46,-48.85 679.28,-7.74 1596.71,-40.07 2222.54,-21.28 423.04,12.7 2764.92,-83.36 2928.36,-16.97l3.66 140.9 -2928.04 35.88 -2921.36 33.83 0.38 -123.51zm5556.05 -307.87c-6.13,2.64 -15.37,-1.41 -19.04,6 -3.71,7.47 -14.17,4.49 -19.39,5.45 -7.37,1.36 -468.87,42.93 -656.3,7.08 -4.7,-111.62 -12.47,-128.34 75.25,-145.42l498.17 -8.08c118.55,3.06 115.76,5.23 121.31,134.97zm-2149.26 -79.75c94.03,-56.07 520.12,-38.83 640.54,-24.66l26.91 136.36 -391.41 11.48 -293.16 4.16 17.12 -127.34zm-209.91 124.1l-555.57 19.08c-7.18,-276.7 0.74,-556.68 1.35,-834.07 0.59,-269.55 -20.62,-550.94 276.89,-557.91 289.49,-6.78 277.9,267.01 277.95,528.29 0.02,278.13 7.97,567.72 -0.62,844.61zm-744.24 4.28l-691.73 21.74c-2.44,-104.66 -10.59,-136.99 79.12,-153.8l518.71 -7.44c106.79,6.18 105.51,31.82 93.9,139.5zm-2174.09 -102.64c118.78,-27.93 281.12,-14.28 416.37,-15.68 198.4,-2.03 299.08,-70.27 285.39,144.82 -112.45,11.38 -612.66,25.73 -698.42,2.45l-3.34 -131.59zm4758.33 -2663.77l177.45 -4.21 208.75 -3.45 -0.6 2416.02 -411.74 7.33 6.1 -2339.83c8.17,-63.35 -28.16,18.96 20.04,-75.86zm-1503.37 21.02l388.37 -5.66c38.22,74.35 20.46,500.51 20.58,590.47l-1.21 1810.78 -406.4 15.91 -1.34 -2411.5zm-1428.14 18.11l202.01 1.99 -6.97 2397.79 -221.62 7.61 -170.91 -0.23 -0.2 -2405.03 197.69 -2.13zm-535.01 2750.21l-344.38 8.79 5.72 -2495.58 408.16 355.87c93.03,93.12 64.44,138.74 63.51,312.96l-3.68 1167.52c0.09,109.13 29.24,252.1 -37.84,338.8 -113.57,146.79 -61.16,106.06 -91.49,311.64zm-959.01 -2731.97l221.39 -3.91 -1.8 2407.64 -406.94 -13.35 4.84 -2384.02 182.51 -6.36zm3105.07 -380.81c63.79,-0.75 128.23,-1.7 192.23,-2.51 111.48,-1.42 118.85,-3.02 177.03,32.07l-14.66 99.41c-87.14,36.89 -237.8,26.83 -352.26,29.8 -212.29,-12.05 -313.14,65.56 -325.58,-150.48l323.24 -8.29zm-3102.98 195.39c-57.5,-2.05 -285.14,18.98 -274.46,-30.86 -50.6,-44.94 -43.8,15.05 -36.06,-119.67l666.13 2.3c7.05,199.9 -168.04,146.64 -355.61,148.23zm4901.84 -79.62c-113.94,33.75 -535.95,33.37 -627.5,3.56l-6.04 -131.32 671.63 -4.31 -38.09 132.07zm-3414.32 63.05c-212.29,-11.32 -314.85,68.56 -328.49,-149.34l329.21 -8.96 365.6 4.01c-18.85,120.51 3.64,137.03 -127.64,149.26 -66.17,6.16 -170.31,4.68 -238.68,5.03zm825.67 -525.75l2785.1 -28.6 1.16 147.7c-191.63,51.33 -1131.08,26.86 -1399.79,30.39 -464.04,6.1 -929.91,18.33 -1393.69,18.83l-2783.02 34.71 -3.19 -162.7 2793.43 -40.33zm-10.95 -2012.26c75.96,12.8 1391.37,683.76 1570.18,776.07 513.46,265.05 1015.92,509.19 1528.07,782.41 -2.62,290.96 13.86,204.99 -60.99,231.72l-3027.97 36.43c-433.57,-9.48 -2927.46,67.5 -3089.51,24.93l4.02 -202.31c108.12,-85.56 273.52,-150.25 394.07,-215.41l2682.13 -1433.84zm3495.76 5448.68c-66,28.34 -54.95,-83.06 -57.28,120.43 -0.69,61.28 24.59,93.9 47.75,129.23 42.29,95.99 272.79,381.63 356.5,491.22 126.01,165.03 260.24,309.62 362.44,492.18 -418.81,-1.33 -770.76,-14.24 -1177.83,-72.42 -758.99,-108.46 -1459.63,-283.37 -2210.84,11.34 -578.7,227.03 -578.52,366 -740.92,488.24 -20.43,-638.29 -52.44,-637.9 282.42,-849.33 1022.44,-645.59 2298.4,-140.88 2960.33,-189.02l6.32 -321.14 -200.21 -2.12 -4.48 -338.66 -273.28 -5.27c-13.09,-70.35 -2.54,-132.45 -26.2,-195.8 -26.69,-71.47 -63.29,-73.68 -92.15,-110.39 -70.14,-89.27 -30.89,-277.13 -30.64,-393.45l-2.2 -1886.97c-6.88,-312.11 99.73,-55.66 131.7,-483.06l170.77 -2.03 -2.91 -354.75 289.79 -7 0.41 -530.47c-250.87,-77.38 -3150.83,-1668.62 -3289.41,-1646.61 -50.68,8.05 -3197.02,1690.94 -3266.09,1755.03l6.44 508.43 288.87 -3.93 5.03 355.99 164.91 4.3c4.19,437.35 127.21,47.25 120.76,609.34l-4.39 2139.64c-166.32,79.41 -100.02,135.56 -146.93,318.59l-277.9 20.27 -7.62 327.78 -190.09 5.39 -0.92 327.64c1013.36,-81.49 2032.32,-431.08 2961.16,101.66 385.63,221.19 288.16,229.98 285.8,836.14 -68.95,-37 -112.43,-95.58 -168.87,-148.86 -60.39,-57.01 -105.41,-87.22 -182.84,-128.92 -119.3,-64.25 -281.47,-144.44 -428.55,-194.62 -1149.41,-392.18 -2499.82,313.7 -3364.22,154.95l1113.25 -1485.23c108.58,-59.68 186.83,42.42 188.58,-151.32l-255.69 4.19 -1251.52 1630.14c-83.25,121.14 -146.37,241.52 -223.48,340.65 -286.48,368.29 -398.66,417.64 -408.17,747.68 1326.52,-33.8 2679.35,-32 4012.64,-54.41 447.51,-7.52 219.54,11.43 502.99,156.46 274.46,140.44 844.85,142.51 1106.93,-33.87 248.59,-167.32 115.65,-144.64 500.37,-148.45 441.39,-4.38 883.14,-10.8 1324.55,-17.05 607.63,-8.61 2163.8,0.56 2650.25,-38.55 -9.74,-255.72 -2.5,-223.74 -122.81,-375.31 -73.21,-92.24 -138.3,-178.44 -204.81,-263.41 -276.76,-353.48 -502.09,-700.5 -817.73,-1101.31 -81.87,-103.96 -142.88,-178.97 -213.26,-277.31 -64.36,-89.91 -151.9,-171.34 -196.72,-265.87z"/>
   <path class="fil2" d="M10314.48 9767.34l1453.97 -782.47c96.55,-52.84 414.45,-231.76 486.15,-238.56 19.52,-25.6 65.74,-12.64 114.98,10.59 49.24,23.23 44.27,25.04 75.83,40.54l1824.19 949.72 -3955.12 20.18zm1952.86 193.11l2723.77 -48.35c-183.07,-109.62 -470.73,-260.18 -679.71,-356.3 -392.5,-180.54 -944.6,-483.8 -1353.01,-694.46 -146.19,-75.41 -578.22,-309.52 -715.01,-339.05 -294.33,208.36 -2585.7,1338.7 -2692.68,1474.59l2716.64 -36.43z"/>
   <path class="fil0" d="M12267.1 10131.75l0.24 -171.3 -2716.64 36.43c106.98,-135.89 2398.35,-1266.23 2692.68,-1474.59 29.17,-78.55 22.93,-131.36 14.43,-217.17l-2682.13 1433.84c-120.55,65.16 -285.95,129.85 -394.07,215.41l-4.02 202.31c162.05,42.57 2655.94,-34.41 3089.51,-24.93z"/>
   <path class="fil3" d="M7879.09 15898.8c-315.98,3.38 -417.71,-46.66 -485.6,81.11 48.01,37.89 81.75,37.87 170.59,35.02l1123.07 -19.45c426.5,-4.43 853.17,-10.12 1279.65,-16.16 426.29,-6.05 853.44,-13.76 1279.65,-16.71 552.44,-3.84 285.04,-4.06 499.87,134.58 252.92,163.23 814.12,156.72 1035.46,-20.65 209.13,-167.6 33.69,-136 507.61,-141.26 529.63,-5.88 3581.07,-22.97 3835.23,-51.4 -38.41,-127.18 -46.55,-109.7 -197,-104.7l-809.41 13.15c-447.58,4.16 -3055.85,17.93 -3277.7,49.66 -144.56,196.02 -258.02,265.41 -584.03,269.57 -344.73,4.4 -446.84,-80.01 -583.36,-257.47 -237.39,-20.25 -2789.86,31.12 -3255.23,38.37 -179.56,2.79 -359.24,4.42 -538.8,6.34z"/>
   <path class="fil4" d="M10912.49 13777.09c30.33,-205.58 -22.08,-164.85 91.49,-311.64 67.08,-86.7 37.93,-229.67 37.84,-338.8l3.68 -1167.52c0.93,-174.22 29.52,-219.84 -63.51,-312.96l-408.16 -355.87 -5.72 2495.58 344.38 -8.79z"/>
   <path class="fil3" d="M12539.01 13749.88c8.59,-276.89 0.64,-566.48 0.62,-844.61 -0.05,-261.28 11.54,-535.07 -277.95,-528.29 -297.51,6.97 -276.3,288.36 -276.89,557.91 -0.61,277.39 -8.53,557.37 -1.35,834.07l555.57 -19.08z"/>
   <path class="fil5" d="M16349.11 12458.31l141.06 -0.14 1.2 131.15 -132.5 7.1 -9.76 -138.11zm11.38 -1655.19l136.14 -11.26 -0.85 138.28 -129.9 3.99 -5.39 -131.01zm-448.02 -1448l492.36 -4.38 1.39 767.69 -492.93 9.34 -0.82 -772.65zm-1425.34 -493.48c-4.81,-136.04 111.85,-152.92 146.4,-24.34 -46.39,83.73 -69.89,88.6 -146.4,24.34zm2053.71 3764.15l-1.98 -198.6c-89.78,-61.05 -55.98,30.83 -94.33,-66.14l4.03 -1324.6c6.2,-79.75 15.29,-24.9 100.09,-91.09 -4.82,-76.52 10.84,-132.52 -30.36,-182.32l-39.77 -30.75c-49.37,-42.11 -11.05,40.01 -32.3,-32.56l4.07 -535.87 490.89 -10.03c-1.95,260.09 -30.81,2059.95 11.92,2147.87 47.55,-61.33 52.59,-1980.12 16.69,-2186.95l-520.82 -8.11 -8.05 -794.8 -526.68 -7.6 -2.53 -514.27c-363.69,-10.43 -745.51,7.97 -1111.69,9.54 -186.98,0.8 -64.77,-0.19 -181.26,-71.05 -179.19,-109 -264.74,197.65 -81.87,222.35 100.19,13.54 106.54,-41.8 152.98,-103.83l1179.85 -13.69 3.84 479.4c-169.8,20.38 -572.35,-38.34 -687.17,33.84 86.04,55.64 568.45,4.47 686.76,15.75l-0.39 759.7c-80.09,8.52 -92.74,-7.44 -149.34,25.82l149.82 25.56c1.02,154.69 0.91,313.9 -1.62,468.44 -1.89,115.16 -8.58,112.34 -68.8,170.86 -42.81,41.61 -70.38,69.84 -112.3,114.33 -340.77,361.88 -300.68,368.98 -587.94,372.56 36.47,62.88 -45.96,33.72 99.44,46.24 135.15,11.63 174.57,-32.97 260.44,-127.49 526.21,-579.39 453.37,-227.5 449.75,-1054.3l490.11 10.83 7.23 547.83c-58.39,49.45 -33.74,10.47 -98.05,46.11l-2.34 202.13c102.8,42.19 80.97,-28.08 96.1,87.44l-3.81 1332.11 -100.14 39.79 2.42 202.03c36.32,17.07 17.59,4.96 45.58,17.16 32.28,14.1 34.51,15.89 51.5,26.48l11.02 1656.44c20.07,-20.47 21.7,0.45 31.85,-84.34 2.29,-19.11 -0.56,-89.01 -0.98,-112.87l0.87 -629.13c0.68,-276.53 -3.93,-554.34 1.77,-830.67 50.12,-48.6 35.17,-19.22 95.5,-49.55z"/>
   <path class="fil4" d="M12243.38 8522.29c136.79,29.53 568.82,263.64 715.01,339.05 408.41,210.66 960.51,513.92 1353.01,694.46 208.98,96.12 496.64,246.68 679.71,356.3 125.02,0.59 248.28,-6.15 318.11,38.99l-14.15 144.23c74.85,-26.73 58.37,59.24 60.99,-231.72 -512.15,-273.22 -1014.61,-517.36 -1528.07,-782.41 -178.81,-92.31 -1494.22,-763.27 -1570.18,-776.07 8.5,85.81 14.74,138.62 -14.43,217.17z"/>
   <path class="fil4" d="M12895.35 11034.31l177.96 0.74 -5.44 2362.81 -169.04 7.08 -3.48 -2370.63zm-18.37 2385.96l406.4 -15.91 1.21 -1810.78c-0.12,-89.96 17.64,-516.12 -20.58,-590.47l-388.37 5.66 1.34 2411.5z"/>
   <path class="fil4" d="M14556.46 10983.54l-1.76 2399.13 -182.71 3.65 7.02 -2398.57c-48.2,94.82 -11.87,12.51 -20.04,75.86l-6.1 2339.83 411.74 -7.33 0.6 -2416.02 -208.75 3.45z"/>
   <path class="fil3" d="M12267.34 9960.45l-0.24 171.3 3027.97 -36.43 14.15 -144.23c-69.83,-45.14 -193.09,-38.4 -318.11,-38.99l-2723.77 48.35z"/>
   <path class="fil4" d="M12263.11 14103.08l2928.04 -35.88 -3.66 -140.9c-163.44,-66.39 -2505.32,29.67 -2928.36,16.97 -625.83,-18.79 -1543.26,13.54 -2222.54,21.28 -100,1.14 -619.72,-27.56 -694.46,48.85 204.56,-59.48 1175.25,-34.91 1457.73,-38.14 487.52,-5.58 974.99,-11.42 1462.51,-16.91l0.74 144.73z"/>
   <path class="fil4" d="M12573.02 15595.74c109.98,55.5 262.28,-96.85 392.65,-147.5 515.58,-200.3 1028.14,-196.95 1565.54,-133.66 1088.03,128.16 1039.39,143.76 2175.19,130.01l-49.27 -118.95c-388.05,1.89 -761.76,16.79 -1144.97,-28.97 -647.48,-77.33 -1518.76,-258.4 -2141.55,-98.66 -250.52,64.25 -704.92,244.1 -797.59,397.73z"/>
   <path class="fil4" d="M7899.16 15365.81c1162.74,28.84 1359.81,-145.34 2246.93,-229.27 1541.97,-145.88 1722.55,426.65 1920.62,409.37 8.1,-60.28 8.4,-50.75 -49.14,-102.8 -172.17,-155.78 -492.71,-316.82 -729.35,-384.54 -943.77,-270.07 -1856.28,143.24 -2880.38,182.42 -429.48,16.43 -471.12,-49.07 -508.68,124.82z"/>
   <polygon class="fil4" points="9766.13,13435.5 10173.07,13448.85 10174.87,11041.21 9953.48,11045.12 9951.75,13441.93 "/>
   <path class="fil4" d="M7816.2 15561.57c822.18,-0.21 1398.05,-72.22 2201.46,-190.4 545.26,-80.21 1034.53,-90.34 1548.97,100.59 269.92,100.18 276.3,197.25 389.81,128.45 -124.27,-135.37 -549.67,-331.29 -809.51,-375.91 -769.97,-132.21 -1383.66,55.25 -2140.15,157.32 -406.43,54.83 -752.47,31.41 -1148.12,59.17l-42.46 120.78z"/>
   <path class="fil4" d="M12707.3 15705.34c278.09,37.51 339.33,-352.59 1973.4,-154.4 728.25,88.32 1370.19,114.89 2111.68,81.8 -38.2,-163.57 -161.16,-109.46 -494.24,-107.71 -757.11,3.96 -874.53,-30.81 -1629.31,-119.62 -382.05,-44.95 -734.08,-88.55 -1121.45,-34.79 -161.99,22.48 -328.83,62.3 -475.15,116.65 -108.08,40.14 -319.97,107.97 -364.93,218.07z"/>
   <path class="fil4" d="M12440.38 15535.18c127.19,31.92 268.06,-239.13 815.44,-383.28 774.12,-203.86 1442.2,-19.15 2214.26,70.5 126.66,14.71 1022.98,74.22 1150.88,9.97 -32.38,-115.85 31.41,-105.11 -254.87,-95.04 -718.22,25.28 -1304.72,-116.13 -1996.63,-195.52 -400.91,-45.99 -774.66,-15.72 -1158.07,98.63 -255.63,76.22 -677.23,306.89 -771.01,494.74z"/>
   <path class="fil4" d="M7724.35 15748.13c752.82,11.23 1428.95,-23.83 2170.44,-140.5 496.53,-78.12 1057.21,-137.97 1548.8,10.03 267.08,80.41 295.02,152.07 377.83,77.89 -100.03,-126 -616.08,-264.52 -832.9,-289.48 -377.66,-43.46 -709.14,0.44 -1080.39,52.61 -345.86,48.61 -670.24,104.39 -1017.56,141.47 -375.78,40.1 -749.36,11.3 -1120.84,37.61l-45.38 110.37z"/>
   <path class="fil4" d="M11420.92 13434.27l221.62 -7.61 6.97 -2397.79 -202.01 -1.99c-19.62,377.37 38.37,2253.86 -26.58,2407.39z"/>
   <path class="fil0" d="M11420.92 13434.27c64.95,-153.53 6.96,-2030.02 26.58,-2407.39l-197.69 2.13 0.2 2405.03 170.91 0.23z"/>
   <path class="fil3" d="M12261.54 10485.7c463.78,-0.5 929.65,-12.73 1393.69,-18.83 268.71,-3.53 1208.16,20.94 1399.79,-30.39l-1.16 -147.7 -2785.1 28.6 -7.22 168.32z"/>
   <polygon class="fil0" points="12261.54,10485.7 12268.76,10317.38 9475.33,10357.71 9478.52,10520.41 "/>
   <polygon class="fil0" points="9766.13,13435.5 9951.75,13441.93 9953.48,11045.12 9770.97,11051.48 "/>
   <polygon class="fil0" points="14556.46,10983.54 14379.01,10987.75 14371.99,13386.32 14554.7,13382.67 "/>
   <path class="fil0" d="M12263.11 14103.08l-0.74 -144.73c-487.52,5.49 -974.99,11.33 -1462.51,16.91 -282.48,3.23 -1253.17,-21.34 -1457.73,38.14l-0.38 123.51 2921.36 -33.83z"/>
   <polygon class="fil0" points="12898.83,13404.94 13067.87,13397.86 13073.31,11035.05 12895.35,11034.31 "/>
   <path class="fil5" d="M15617.74 14594.25l-1.35 -67.34c49.06,-31.33 32.32,-29.07 121.74,-23.32l12.1 103.4c-58.51,10.92 -67.42,22.15 -132.49,-12.74zm-707.49 -85.06c22.76,-11.94 26,-35.48 84.71,-20.1 86.85,22.76 38.99,16.46 51.12,67.63 -119.67,75.48 -108.94,16.41 -135.83,-47.53zm978 -1796.11l138.33 -1.04 -5.36 142.02 -132.71 -8.82 -0.26 -132.16zm-237.3 930.04l12.81 256.28 0.69 537.1c-126.85,54.12 -119.27,96.06 -119.44,95.69 -1.53,-3.57 -4.85,11.13 -8.98,15.42 -104.58,-5.51 -285.85,-4.39 -380.21,-20.35 -140.69,-23.8 -6.2,-19.38 -127.56,-73.27 -105.14,-46.69 -218.05,30.75 -150.34,130.53 78.64,115.92 145.87,-18.22 386.15,-3.61 87.02,5.29 214.33,-6.13 278.55,30.83 41.78,24.04 -30.01,84.58 261.92,50.04l-5.36 -182.12c-105.73,-75.83 -95.22,30.92 -93.37,-199.74 0.36,-45.06 -4.02,-119.64 -1.1,-159.65 1.87,-25.56 3.04,-38.71 10.08,-63.08 19.99,-69.06 -15.79,-3.97 29.25,-53.73 -23.16,-35.33 -48.44,-67.95 -47.75,-129.23 2.33,-203.49 -8.72,-92.09 57.28,-120.43 -66.67,-64.97 -48.56,-106.7 -47.07,-215.45l3.4 -494.43c-0.68,-95.82 -10.11,-114.35 13.02,-196.78l17.28 -36.57c284.64,3.03 -140.63,142.76 329.07,81.46l-5.41 -225.55 -188.79 -0.29c-76.45,80.82 6.02,100.05 -164.99,101.25l-3.56 -932.54 -325.88 -0.3 -6.17 -170.23c-86.74,-9.22 -222.07,-19.52 -281.69,18.15 32.67,27.43 -8.15,7.97 47.89,22.3 28.68,7.33 31.22,5.58 60.95,7.11 38.07,1.95 83.85,-2.5 132.32,-0.5l-12.05 290.42c-72.97,9.25 -114.83,-7.45 -183.02,15.95 -76.02,26.09 3.75,-27.45 -53.12,34.51l290.77 -1.52 5.58 -171.61 286.21 0.14 -8.72 880.81c-91.2,12.6 -186.14,8.41 -278.55,9.99 -46.69,0.79 -115.42,-1.56 -159.1,1.86 -114.86,9.01 -91,21.75 -107.66,41.66l552.8 4.63c-3.25,154.77 25.66,738.54 -16.13,824.85z"/>
   <path class="fil5" d="M8136.53 12518.92c-44.55,21.59 -93.94,-14.73 -106.37,-39.94 -38.19,-77.48 11.43,-84.31 39.1,-100.85 107.42,-64.13 159.86,95.92 67.27,140.79zm-53.57 -202.91c-162.5,66.43 -151.01,184.74 -3.37,263.68 0.59,322.25 -6.02,644.59 -5.87,966.86 0.07,134.99 -38.43,847.59 31.63,907.64 33.52,-64.77 18.71,-1663.92 18.6,-1883.36 65.65,-16.32 80.47,-41.21 118.82,-72.26l590.93 225.37 2.51 589.51c1.38,106.15 0.76,117.52 38.92,156.81l-0.55 -794.16c-135.75,-35.1 -283.64,-104.43 -421.58,-154.43 -303.67,-110.06 -149,-36.75 -256.11,-164.44l-74.85 -68.5c-1.42,-245.22 31.56,-1388.87 -12.2,-1527.97 -38.6,46.99 -30.58,108.24 -29.47,180.8l2.59 1374.45z"/>
   <path class="fil5" d="M8504.42 11061.16l127.17 3.59 6.11 135.74 -143.92 0.35 10.64 -139.68zm152.74 170.69c3.49,-2.57 8.52,-7.73 11.9,-10.18 42.63,-31 8.74,-43.54 104.68,-14.04 192.13,59.09 407.88,166.27 637.47,228.31 -11.9,-68.92 8.39,-43.34 -92.59,-80.81l-361.79 -127.7c-370.38,-118.93 -223.61,-95.16 -298.23,-190.6 -63.53,-81.28 -45.54,32.92 -68.58,-78.68l-5.77 -1163.36c-4.34,4.19 -8.68,10.93 -10.6,14.64l-32.96 1194.26c-136.11,24.71 -91.82,41.62 -91.33,203.23 43.58,97.51 7.59,7.36 94.44,66.13l-2.25 950.19 536.84 -2.67 5.75 149.34c74.37,-65.59 19.6,-57.59 56.6,-151.85l288.2 -2.23c-53.96,-52.01 -3.09,-24.1 -85.43,-45.89l-204.75 -4.29c-2.14,-8.78 -11.37,-70.13 -11.75,-71.16 -26.53,-73.85 4.16,-30.25 -44.72,-80.01l-7.04 155.43 -485.71 5.88 1.56 -903.35 66.06 -40.59z"/>
   <path class="fil5" d="M8507.62 14858.6c41.73,44.85 -37.54,33.35 111.94,39.78 135.85,5.85 641.27,-61.68 770.04,-83.37 281.28,-47.4 555.46,-105.71 840.94,-137.03 445.69,-48.91 854.77,-32.49 1272.11,121.19 124.23,45.74 229.37,108.97 339.12,143.83 -34.27,-91.37 -51.24,-73.87 -147.45,-117.65 -479.54,-218.26 -936.18,-258.68 -1472.12,-197.73 -278.65,31.69 -556.9,92.82 -834.6,136.63 -254.62,40.18 -680.53,49.43 -879.98,94.35z"/>
   <path class="fil6" d="M11809.09 9548.43c0.75,-3.58 5.5,-93.49 6.42,-106.11 0,0.01 -29.93,24.98 67.01,81.38 -12.46,-62.61 -40.23,-193.95 -21.31,-262.64 42.09,-152.71 -1.39,-30.13 57.17,-83.83 -12.27,168.58 -24.88,146.27 8.68,315.01 31.98,-90.9 -35.81,-208.72 146.64,-331.16 110.39,-74.08 -23.72,37.33 34.23,-21.03 -44.75,56.95 -76.18,104.24 -57.08,201.59 11.48,58.56 15.23,45.61 40.96,80.82l55.86 78.38c48.54,-13.77 53.33,-15.16 80.09,-39.17 -2.7,-87.15 -41.82,-64.42 -98.46,-70.29 -3.36,-0.35 -11.48,-1.84 -14.19,-2.16 -2.69,-0.32 -9.64,-1.18 -14.09,-2.92 1.34,-67.42 -19.63,-50.54 30.2,-99.77l33.39 -58.48 150.63 -1.25c97.91,37.92 31.08,21.62 48.06,-37.4 -71.74,-27.82 -44.73,-26.85 -106.83,-65.15 -283.04,-174.6 -625.88,-113.83 -569.96,189.05 28.03,151.86 89.71,98.03 88.02,324.04"/>
   <path class="fil5" d="M8637.81 14684.23c125.26,96.5 1451.7,-163.46 1656.56,-184.92 1007.06,-105.49 1328.25,211.89 1560.65,259.72 -34.47,-101.46 -188.82,-143.82 -294.54,-179.25 -782.19,-262.22 -1282.13,-137.04 -2074.42,-4.6 -168.39,28.15 -756.59,74.35 -848.25,109.05z"/>
   <path class="fil3" d="M9624.02 13783.11c85.76,23.28 585.97,8.93 698.42,-2.45 13.69,-215.09 -86.99,-146.85 -285.39,-144.82 -135.25,1.4 -297.59,-12.25 -416.37,15.68l3.34 131.59z"/>
   <path class="fil3" d="M14203.45 13724.06c187.43,35.85 648.93,-5.72 656.3,-7.08 5.22,-0.96 15.68,2.02 19.39,-5.45 3.67,-7.41 12.91,-3.36 19.04,-6 -5.55,-129.74 -2.76,-131.91 -121.31,-134.97l-498.17 8.08c-87.72,17.08 -79.95,33.8 -75.25,145.42z"/>
   <path class="fil4" d="M11794.77 13754.16c11.61,-107.68 12.89,-133.32 -93.9,-139.5l-518.71 7.44c-89.71,16.81 -81.56,49.14 -79.12,153.8l691.73 -21.74z"/>
   <path class="fil4" d="M14229.91 10783.64c91.55,29.81 513.56,30.19 627.5,-3.56l38.09 -132.07 -671.63 4.31 6.04 131.32z"/>
   <path class="fil2" d="M15663.76 13899.4l-12.81 -256.28c-215.59,-321.16 -214.93,-278.74 -466,-270.25 -7.48,133.33 12.84,116.3 125.86,132.7 90.76,13.16 147.45,104.73 250.25,256.73 41.45,61.26 52.78,82.2 102.7,137.1z"/>
   <path class="fil5" d="M12689.48 14920.84c149.08,-17.94 393.85,-258.42 1095.26,-307.32l417.96 -14.68c3.31,-7.16 11.38,-5.64 16.74,-9.02 -198.7,-118.92 -1451.7,86.43 -1529.96,331.02z"/>
   <path class="fil5" d="M12667.66 14744.47c76.85,-7.56 400.29,-177.01 566.79,-219.34 117.61,-29.9 619.87,-83.47 654.35,-110.64 -127.29,-95.8 -1129.03,127.28 -1221.14,329.98z"/>
   <path class="fil4" d="M11983.83 14416.35c62.95,35.51 152.92,29.3 229.74,25.85 73.54,-3.3 177.7,-3.23 247.14,-10.52 77.41,-8.14 110.28,-34.46 181.56,-65.75l165.58 -93.18 -561.78 8.45 14.47 147.18 -276.71 -12.03z"/>
   <path class="fil4" d="M13024.96 13748.96l391.41 -11.48 -26.91 -136.36c-120.42,-14.17 -546.51,-31.41 -640.54,24.66l306.17 -6.46 -30.13 129.64z"/>
   <path class="fil4" d="M9681.11 10828.84l-19.13 -91.97 295.92 1.58 -2.33 121.25c187.57,-1.59 362.66,51.67 355.61,-148.23l-666.13 -2.3c-7.74,134.72 -14.54,74.73 36.06,119.67z"/>
   <path class="fil5" d="M14117.78 14390.4l-58.8 -35.32c21.27,90.34 26.16,109.8 108.06,117.78 57.53,5.61 145.54,1.23 210.74,2.48l107.53 218.23 238.68 19.83c-35.61,-165.58 -67.5,-140.4 -241.53,-153.02 -57.09,-93.92 -36.79,-128.74 -180.01,-135.16 -120.28,-5.39 -97.82,19.1 -184.67,-34.82z"/>
   <polygon class="fil0" points="11983.83,14416.35 12260.54,14428.38 12246.07,14281.2 11709.37,14292 "/>
   <path class="fil4" d="M13060.89 10823.08c114.46,-2.97 265.12,7.09 352.26,-29.8l14.66 -99.41c-58.18,-35.09 -65.55,-33.49 -177.03,-32.07 -64,0.81 -128.44,1.76 -192.23,2.51l2.34 158.77z"/>
   <path class="fil4" d="M11443.09 10843.13c68.37,-0.35 172.51,1.13 238.68,-5.03 131.28,-12.23 108.79,-28.75 127.64,-149.26l-365.6 -4.01 -0.72 158.3z"/>
   <path class="fil0" d="M11443.09 10843.13l0.72 -158.3 -329.21 8.96c13.64,217.9 116.2,138.02 328.49,149.34z"/>
   <path class="fil0" d="M13060.89 10823.08l-2.34 -158.77 -323.24 8.29c12.44,216.04 113.29,138.43 325.58,150.48z"/>
   <polygon class="fil7" points="13024.96,13748.96 13055.09,13619.32 12748.92,13625.78 12731.8,13753.12 "/>
   <path class="fil0" d="M9681.11 10828.84c-10.68,49.84 216.96,28.81 274.46,30.86l2.33 -121.25 -295.92 -1.58 19.13 91.97z"/>
   <path class="fil6" d="M12234.55 9304.53c75.14,29.2 -14.63,21.6 107.12,78.67 -0.3,0.58 -18.66,50.31 -21.26,58.32 37.38,-57.48 20.95,-23.87 59.81,-42.6l-10.35 45.7c99.82,-59.28 -24.55,-169.37 -54.63,-217.82l-150.63 1.25 -33.39 58.48"/>
   <path class="fil0" d="M15738.13 14503.59c-89.42,-5.75 -72.68,-8.01 -121.74,23.32l1.35 67.34c65.07,34.89 73.98,23.66 132.49,12.74l-12.1 -103.4z"/>
   <path class="fil0" d="M14994.96 14489.09c-58.71,-15.38 -61.95,8.16 -84.71,20.1 26.89,63.94 16.16,123.01 135.83,47.53 -12.13,-51.17 35.73,-44.87 -51.12,-67.63z"/>
  </g>
  <g id="_1062716872">
   <path class="fil8" d="M12342.06 9530.47c-37.44,0 -57.4,-1.58 -91.39,-13.8 -25.47,-9.15 -59.11,-29.16 -77.92,-48.14 -10.68,-10.77 -20.62,-21.52 -29.77,-33.69 -25.21,-33.54 -42.8,-74.01 -53.21,-114.56 -1.35,-5.23 -2.83,-11.2 -4.18,-16.7 -7.29,-29.87 -14.08,-82.19 -13.88,-113.03 0.04,-7.15 -0.89,-12.07 -0.88,-19.99 0,-6.95 -0.02,-13.91 0,-20.86 0.02,-8.1 -0.72,-11.14 0.13,-18.99 0.7,-6.48 0.74,-13.28 0.74,-21 -0.63,0.9 -0.06,-0.26 -0.93,1.68 -8.56,19.12 -20.21,77.73 -22.71,98.13 -1.29,10.59 -3.33,23.03 -3.34,34.04l-0.49 23.99c0.67,4.25 0.53,7.96 0.51,12.55 -0.03,8.53 1.21,15.06 1.71,22.63 1.43,21.26 6.88,43.57 12.51,63.13 8.77,30.47 22.59,58.42 39.52,84.8 11.62,18.11 29.58,42.33 45.25,57.33l11.79 10.81c33.4,25.95 52.88,37.99 97.54,52.86 73.14,24.35 148.17,16.14 217.65,-15.12 14.03,-6.32 28.06,-13.36 41.25,-21.34l19.27 -12.03c18.48,-12.42 36.38,-25.31 53.88,-39.14 10.26,-8.11 19.42,-17.14 29.31,-25.46 12.54,-10.54 24.93,-22.34 36.05,-34.36l28.03 -33.7c2.28,-2.92 4.67,-5.78 6.95,-8.7l45.73 -62.93c12.71,-19.01 23.76,-38.63 35.49,-58.4l8.05 -14.56c16.03,-28.88 30.5,-59 43.76,-89.24 3.17,-7.21 5.89,-14.58 9.25,-22.06 3.43,-7.66 15.73,-36.55 17.68,-44.91 -2.55,1.87 -3.64,5.67 -5.38,8.53 -1.9,3.12 -3.49,6.19 -5.32,9.46 -3.74,6.69 -7.06,12.13 -10.77,18.8 -1.86,3.35 -3.64,6.09 -5.53,9.24 -1.84,3.05 -3.44,6 -5.44,9.34l-46.15 72.08c-2.17,3.27 -3.67,5.72 -5.98,8.8 -2.32,3.08 -3.78,5.61 -6.09,8.69l-38.01 50.66c-4.31,5.63 -8.69,10.77 -13.15,16.41l-27.45 31.67c-7.97,9.53 -36.98,40.03 -42.98,44.82 -5.28,4.21 -9.61,10.23 -14.9,14.65 -6.63,5.54 -12.46,11.79 -19.38,17.14l-7.92 6.86c-1.86,1.56 -2.19,1.96 -4.24,3.57 -2.86,2.25 -5.32,4.44 -8,6.78 -18.53,16.2 -39.17,30.61 -60.23,43.23 -6.21,3.72 -12.27,7.1 -18.8,10.76 -3.34,1.87 -6.62,3.33 -9.85,4.93 -3.49,1.73 -6.05,3.54 -9.53,5.24l-20.31 9.25c-31.26,15.03 -82.02,29.85 -117.94,29.85z"/>
   <path class="fil8" d="M12249.05 9400.94c0.24,-14.22 3.29,-32.15 3.36,-36.65 0.1,-5.84 -16.04,-20.02 -23.67,-42.5l34.21 5.39c2.41,-3.81 4.62,-10.88 6.53,-15.35 2.28,-5.32 4.23,-10.25 6.6,-15.11l13.83 -28.94 3.28 16c1.45,9.17 6.55,45.04 8.33,48.87l73.37 8.1 -47.1 25.9c-4.69,2.54 -11.23,6.44 -16.2,8.27 3.5,21.6 13.2,41 17.56,57.5 -9.96,-4.55 -27.2,-21.9 -37.11,-30.12 -13.49,-11.19 -9.76,-13.54 -18.51,-9.03 -6.6,3.4 -16.16,8.31 -22.75,10.64 1.38,1.5 2.55,3.25 4.07,5.12 1.81,2.25 3.09,3.64 4.74,5.7 15.39,19.07 36.47,32.42 59.75,40.23 4.94,1.65 28.9,7.53 34.04,5.09l8.68 -8.94c-2.82,-1.03 -4.13,-2.12 -7.24,-3.8 -1.13,-0.61 -2.21,-1.11 -3.33,-1.8l-3.86 -3.36c21.67,1.02 19.08,4.44 26.05,-6.07 3.36,-5.07 1.85,-4.59 5.37,-6.56l2.78 14.01 19.09 -0.25 -17 8.37 1.65 6.67c7.28,-1.74 13.66,-3.66 20.07,-5.98 18.72,-6.78 33.4,-18.42 47.05,-32.06 14.28,-14.28 23.82,-29.37 30.32,-48.78 12.28,-36.67 6.32,-81.29 -11.42,-107.92 -1.79,-2.68 -3.08,-5.27 -5.07,-7.96 -2,-2.7 -3.56,-4.56 -5.72,-7.32 -9.19,-11.75 -22.46,-23.1 -35.1,-30.97l-8.85 -5.06c-11.21,-5.75 -27.94,-10.42 -41.04,-12 -33.14,-3.98 -59.2,2.39 -85.75,18.27 -11.52,6.88 -19.4,15.25 -28.64,24.39 -30.86,30.51 -39.54,80.96 -29.09,121.68 2.44,9.48 9.74,28.36 16.72,36.33z"/>
   <path class="fil8" d="M11883.05 9348.78c0,-6.43 -1.36,-13.03 -2.24,-19.49 -2.48,-18.2 -3.83,-44.34 -3.85,-62.23 -0.01,-8.23 0.94,-12.96 0.86,-20.87 -0.14,-14.93 4.94,-44.89 8.18,-57.89 6.84,-27.37 18.4,-54.43 34.18,-75.37 5.47,-7.26 13.75,-17.69 20.45,-23.88 2.36,-2.18 3.66,-2.78 6.09,-5.21 10.01,-9.95 33.07,-24.22 45.86,-30.64 19.85,-9.97 61.19,-23.49 84.44,-25.97 11.88,-1.27 30.69,-0.05 43.36,-0.11 20.22,-0.11 58.2,5.83 77.9,10.78 25.68,6.45 42.39,11.28 66.79,21.01 3.14,1.25 4.36,1.93 7.31,3.12 2.54,1.02 5.45,2.08 7.97,3.33 20.84,10.39 36.87,16.76 58.18,29.62 24.85,14.98 42.63,26.68 66.12,44.29l59.99 50.42 44.55 43.26c2.01,2.28 2.44,3.33 4.77,5.65 2.11,2.1 3.57,3.53 5.68,5.63 2.33,2.32 2.76,3.37 4.77,5.65l16.07 17.84c2.24,2.39 2.82,2.99 4.88,5.55 1.87,2.34 3.47,3.52 5.34,5.96l30.05 36.02c6.7,8.53 13.1,16.44 19.52,24.82l19.11 25.23c-1.9,-8.17 -45.22,-81.68 -50.42,-89.55l-18.61 -28.34c-11.15,-16.72 -27.02,-38.45 -39.36,-53.65 -3.76,-4.62 -6.6,-8.48 -10.44,-13.03 -23.24,-27.6 -29.58,-33.54 -56.12,-60.38 -10.41,-10.53 -39.05,-33.76 -51.08,-42.81 -47.5,-35.74 -100.46,-60.53 -158.74,-75.11 -11.79,-2.95 -26.16,-6.03 -38.67,-7.41 -29.14,-3.2 -60.33,-5.15 -90.35,-3.54 -21.13,1.12 -61.28,7.68 -79.87,13.14 -28.14,8.26 -55.77,20.45 -78.84,38.52 -30.67,24 -55.16,59.86 -65.57,97.87 -15.98,58.3 -14.79,107.52 -5.83,168.4l7.57 39.37z"/>
   <path class="fil9" d="M12342.93 9613.93c82,0 160.21,-23.75 229.55,-63.42 27.3,-15.62 43.18,-26.91 67.77,-46.12l76.29 -70.62 15.63 -17.41c21.96,-21.6 73.79,-94.47 84.73,-110.88 8.8,-13.21 17.21,-25.83 25.53,-39.67l38.34 -66.84c1.33,-2.37 1.88,-2.91 3.19,-5.5l16.72 -31.97c2.19,-3.65 9.99,-18.76 10.8,-22.23 -1.73,-2.37 -9.14,-6.19 -12.17,-7.83l-39.99 -22.6 -38.83 88.09c-7.21,14.34 -13.88,28.37 -21.14,42.32 -1.83,3.51 -3.54,6.13 -5.52,10.13 -12.34,24.97 -40.06,69.07 -54.13,90.18 -4.51,6.78 -8.73,12.38 -13.22,18.95 -9.05,13.27 -33.58,45.25 -45.17,58.29l-11.38 12.96c-2.43,3.05 -5.06,4.79 -7.58,8.06l-23.23 24.59c-10.71,8.95 -21.22,20.29 -34.02,30.31l-17.27 14.03c-38.22,28.35 -53.5,38.74 -98.56,61.39 -14.55,7.32 -29.58,12.94 -45.23,19.1 -20.29,7.98 -52.97,16.68 -74.66,20.97 -4.46,0.88 -23.84,3.91 -26.45,5.72z"/>
   <path class="fil10" d="M12177.76 8977.57l21.74 3.47c7.26,1.21 15.19,2.79 21.94,4.14l41.69 10.46c49.51,13.73 97.87,38.15 140.48,66.43 5.28,3.5 9.58,6.89 14.78,10.43 9.33,6.35 35.08,27.42 42.97,35.27l56.68 58.94 39.37 51.91c11.19,14.92 29.27,46.51 39.41,64.05 1.55,2.68 2.79,4.97 4.29,7.87l22.33 42.88c1.7,3.37 2.45,5.54 4.05,8.99 1.53,3.3 3.23,5.39 4.06,8.98 3.95,-1.06 4.55,-3.92 7.16,-6.75l49.35 -53.24 -20 -31.29c-12.04,-18.07 -46.21,-64.24 -61.95,-79.76l-24.77 -26.52c-2.8,-2.45 -4.19,-3.31 -6.95,-6.08 -3.86,-3.9 -8.53,-9.2 -12.75,-12.46 -5.2,-4.01 -8.84,-8.11 -13.8,-12.28l-13.9 -11.31c-16.46,-12.13 -24.79,-19.55 -45.13,-33.11 -80.29,-53.52 -166.89,-82.44 -263.5,-96.41 -11.96,-1.73 -35.81,-4.61 -47.55,-4.61z"/>
   <path class="fil10" d="M12086.47 9162.74c0,36.49 -0.56,53.28 4.72,90.91 7.48,53.4 22.39,97.85 48.9,142.35 5.66,9.5 18.94,27.82 26.62,36.84 27.15,31.92 60.33,58.33 97.4,78.22 2.73,1.47 8.67,4.96 11.01,5.5l-27.16 -23.26c-10.17,-8.96 -16.73,-16.81 -25.22,-25.2 -9.55,-9.44 -25.41,-30.84 -33.16,-42.47 -1.97,-2.95 -3.34,-4.83 -5.15,-7.9 -16,-27.1 -26.35,-47.28 -35.18,-78.7 -13.53,-48.19 -15.36,-98.34 -8.38,-148.85 1.38,-10.03 2.78,-18.16 4.5,-26.79l5.44 -25.86c-2.68,-0.63 -9.75,-4.93 -12.55,-6.59 -4.35,-2.58 -7.98,-4.24 -12.3,-6.82l-31.12 -17.69c-5.2,-2.96 -4.35,-2.64 -5.61,9.51 -1.66,15.9 -2.76,30.66 -2.76,46.8z"/>
   <path class="fil9" d="M12009.97 9060.16c-5.48,1.27 -18.06,9.41 -22.95,12.69 -4.03,2.7 -6.93,4.85 -10.79,7.47 -7.71,5.24 -27,23.33 -32.33,30.26 -1.56,2.03 -2.81,3.17 -4.36,5.2 -29.72,38.94 -38.28,71.46 -44.83,118.6 -5.34,38.41 1.18,96.53 8.26,131.86 4.03,20.09 8.72,39.36 13.98,58.17 2.64,9.43 5.22,18.76 8.37,28.15 1.64,4.89 3.08,9.23 4.56,13.69 1.51,4.51 3.4,9.27 4.46,13.8 1.99,-1.33 4.65,-3.7 6.75,-5.42l33.61 -27.24c3.31,-2.6 11.62,-8.81 13.54,-11.68l-23.48 -43.46c-7.45,-15 -14.2,-29.93 -20.6,-46.34 -6.49,-16.66 -11.76,-31.82 -16.43,-50.51 -3.37,-13.51 -8.89,-43.02 -9.07,-57.86 -0.91,-73.08 27.81,-129.54 81.62,-169.69 2.39,-1.77 8.28,-5.76 9.69,-7.69z"/>
   <path class="fil11" d="M12249.05 9400.94c0.91,1.33 0.95,1.54 1.73,2.97 6.59,-2.33 16.15,-7.24 22.75,-10.64 8.75,-4.51 5.02,-2.16 18.51,9.03 9.91,8.22 27.15,25.57 37.11,30.12 -4.36,-16.5 -14.06,-35.9 -17.56,-57.5 4.97,-1.83 11.51,-5.73 16.2,-8.27l47.1 -25.9 -73.37 -8.1c-1.78,-3.83 -6.88,-39.7 -8.33,-48.87l-3.28 -16 -13.83 28.94c-2.37,4.86 -4.32,9.79 -6.6,15.11 -1.91,4.47 -4.12,11.54 -6.53,15.35l-34.21 -5.39c7.63,22.48 23.77,36.66 23.67,42.5 -0.07,4.5 -3.12,22.43 -3.36,36.65z"/>
   <path class="fil12" d="M12353.38 9460.05l1.22 0.51c7.83,1.81 26.21,-2.14 30.97,-2.24l-1.65 -6.67 17 -8.37 -19.09 0.25 -2.78 -14.01c-3.52,1.97 -2.01,1.49 -5.37,6.56 -6.97,10.51 -4.38,7.09 -26.05,6.07l3.86 3.36c1.12,0.69 2.2,1.19 3.33,1.8 3.11,1.68 4.42,2.77 7.24,3.8l-8.68 8.94z"/>
   <path class="fil13" d="M11883.05 9348.78l0 3.48 0.87 0c0,-0.49 0.02,-1.42 -0.06,-1.68 -0.44,-1.54 -0.28,-0.97 -0.81,-1.8z"/>
   <polygon class="fil9" points="12011.71,9059.29 12012.58,9059.29 12011.86,9058.27 "/>
   <path class="fil10" d="M12173.41 8977.57c0.08,0.09 0.26,-0.38 0.26,-0.26l0 0c-0.02,0.02 -0.35,0.17 -0.26,0.26z"/>
   <polygon class="fil10" points="12177.76,8977.57 12176.06,8976.57 "/>
   <polygon class="fil9" points="12011.71,9059.29 12009.97,9060.16 "/>
  </g>
 </g>
</svg>
